<svg width="62" height="62" viewBox="0 0 62 62" fill="none" xmlns="http://www.w3.org/2000/svg">
<g id="ic">
<circle id="bg" cx="31" cy="31" r="31" fill="#236000" fill-opacity="0.3"/>
<g id="ic_2">
<path id="Vector" d="M38.2625 22.8625V23.7875L33.8375 21.225C32.1625 20.2625 29.825 20.2625 28.1625 21.225L23.7375 23.8V22.8625C23.7375 20.05 25.275 18.5 28.0875 18.5H33.9125C36.725 18.5 38.2625 20.05 38.2625 22.8625Z" fill="url(#paint0_linear_57_319)"/>
<path id="Vector_2" d="M38.3 25.9623L38.125 25.8748L36.425 24.8998L32.9 22.8623C31.825 22.2373 30.175 22.2373 29.1 22.8623L25.575 24.8873L23.875 25.8873L23.65 25.9998C21.4625 27.4748 21.3125 27.7498 21.3125 30.1123V35.7623C21.3125 38.1248 21.4625 38.3998 23.7 39.9123L29.1 43.0248C29.6375 43.3498 30.3125 43.4873 31 43.4873C31.675 43.4873 32.3625 43.3373 32.9 43.0248L38.35 39.8748C40.55 38.3998 40.6875 38.1373 40.6875 35.7623V30.1123C40.6875 27.7498 40.5375 27.4748 38.3 25.9623ZM34.4875 32.8748L33.725 33.8123C33.6 33.9498 33.5125 34.2123 33.525 34.3998L33.6 35.5998C33.65 36.3373 33.125 36.7123 32.4375 36.4498L31.325 35.9998C31.15 35.9373 30.8625 35.9373 30.6875 35.9998L29.575 36.4373C28.8875 36.7123 28.3625 36.3248 28.4125 35.5873L28.4875 34.3873C28.5 34.1998 28.4125 33.9373 28.2875 33.7998L27.5125 32.8748C27.0375 32.3123 27.25 31.6873 27.9625 31.4998L29.125 31.1998C29.3125 31.1498 29.525 30.9748 29.625 30.8248L30.275 29.8248C30.675 29.1998 31.3125 29.1998 31.725 29.8248L32.375 30.8248C32.475 30.9873 32.7 31.1498 32.875 31.1998L34.0375 31.4998C34.75 31.6873 34.9625 32.3123 34.4875 32.8748Z" fill="url(#paint1_linear_57_319)"/>
</g>
</g>
<defs>
<linearGradient id="paint0_linear_57_319" x1="50.5002" y1="-29" x2="4.50025" y2="42.5" gradientUnits="userSpaceOnUse">
<stop offset="0.390186" stop-color="#59A49E"/>
<stop offset="0.767343" stop-color="#A6D8D2"/>
</linearGradient>
<linearGradient id="paint1_linear_57_319" x1="23.5" y1="40.9998" x2="41" y2="21.9998" gradientUnits="userSpaceOnUse">
<stop offset="0.212076" stop-color="#FFB23F"/>
<stop offset="0.720856" stop-color="#FAD8A5"/>
</linearGradient>
</defs>
</svg>
