<svg width="22" height="22" viewBox="0 0 22 22" fill="none" xmlns="http://www.w3.org/2000/svg">
<g id="Star 6">
<path id="Star 1" d="M10.0153 2.24743C10.2451 1.54004 11.2459 1.54004 11.4757 2.24743L12.9865 6.8971C13.0893 7.21346 13.3841 7.42765 13.7167 7.42765L18.6057 7.42765C19.3495 7.42765 19.6587 8.37945 19.057 8.81664L15.1017 11.6903C14.8326 11.8858 14.72 12.2324 14.8228 12.5487L16.3336 17.1984C16.5634 17.9058 15.7538 18.494 15.152 18.0569L11.1968 15.1832C10.9277 14.9877 10.5633 14.9877 10.2942 15.1832L6.33893 18.0569C5.73719 18.494 4.92754 17.9058 5.15739 17.1984L6.66816 12.5487C6.77095 12.2324 6.65834 11.8858 6.38923 11.6903L2.43399 8.81664C1.83224 8.37945 2.1415 7.42765 2.88529 7.42765L7.77425 7.42765C8.10689 7.42765 8.4017 7.21346 8.50449 6.8971L10.0153 2.24743Z" fill="#236000"/>
</g>
</svg>
