<svg width="125" height="31" viewBox="0 0 125 31" fill="none" xmlns="http://www.w3.org/2000/svg">
<g id="logo">
<g id="Logo">
<path d="M10.46 2.96C8.72 2.96 7.4 3.86 6.5 5.66C5.6 7.44 5.15 9.67 5.15 12.35C5.15 15.03 5.62 17.22 6.56 18.92C7.52 20.62 8.89 21.47 10.67 21.47C11.67 21.47 12.59 21.26 13.43 20.84C14.27 20.42 14.9 19.98 15.32 19.52C15.76 19.06 16.22 18.48 16.7 17.78L17.75 18.53C16.79 20.07 15.71 21.28 14.51 22.16C13.33 23.02 11.81 23.45 9.95 23.45C7.17 23.45 4.9 22.4 3.14 20.3C1.38 18.2 0.5 15.59 0.5 12.47C0.5 9.35 1.38 6.75 3.14 4.67C4.9 2.59 7.34 1.55 10.46 1.55C12.08 1.55 13.64 1.87 15.14 2.51C16.64 3.15 17.39 3.91 17.39 4.79C17.39 5.13 17.28 5.52 17.06 5.96L15.26 9.44L14.18 9.11L14.45 7.25C14.53 6.77 14.57 6.31 14.57 5.87C14.57 5.09 14.19 4.41 13.43 3.83C12.67 3.25 11.68 2.96 10.46 2.96Z" fill="black"/>
<path d="M22.6517 21.17C21.1917 19.63 20.4617 17.74 20.4617 15.5C20.4617 13.26 21.1917 11.38 22.6517 9.86C24.1317 8.32 26.0517 7.55 28.4117 7.55C30.7717 7.55 32.6817 8.32 34.1417 9.86C35.6217 11.38 36.3617 13.26 36.3617 15.5C36.3617 17.74 35.6217 19.63 34.1417 21.17C32.6817 22.69 30.7717 23.45 28.4117 23.45C26.0517 23.45 24.1317 22.69 22.6517 21.17ZM25.9517 10.7C25.3917 11.94 25.1117 13.54 25.1117 15.5C25.1117 17.46 25.3917 19.07 25.9517 20.33C26.5117 21.57 27.3417 22.19 28.4417 22.19C29.5417 22.19 30.3717 21.57 30.9317 20.33C31.4917 19.07 31.7717 17.46 31.7717 15.5C31.7717 13.54 31.4917 11.94 30.9317 10.7C30.3717 9.44 29.5417 8.81 28.4417 8.81C27.3417 8.81 26.5117 9.44 25.9517 10.7Z" fill="black"/>
<path d="M46.5364 9.38V19.67C46.5364 20.29 46.7264 20.77 47.1064 21.11C47.4864 21.45 48.0164 21.62 48.6964 21.62C49.3764 21.62 50.0364 21.34 50.6764 20.78C51.3164 20.22 51.6364 19.49 51.6364 18.59V8H56.1364V19.67C56.1364 20.21 56.2664 20.64 56.5264 20.96C56.7864 21.26 57.1864 21.41 57.7264 21.41C58.2664 21.41 58.8864 21.12 59.5864 20.54L60.1264 21.26C58.5264 22.72 56.8964 23.45 55.2364 23.45C53.5764 23.45 52.4764 22.71 51.9364 21.23C51.1564 22.05 50.3464 22.63 49.5064 22.97C48.6864 23.29 47.6264 23.45 46.3264 23.45C45.0464 23.45 44.0064 23.06 43.2064 22.28C42.4264 21.48 42.0364 20.4 42.0364 19.04V8.99C40.9364 9.27 40.0964 9.76 39.5164 10.46L38.7064 9.53C39.2864 8.93 40.0164 8.45 40.8964 8.09C41.7964 7.73 42.6764 7.55 43.5364 7.55C44.4164 7.55 45.1364 7.73 45.6964 8.09C46.2564 8.43001 46.5364 8.86 46.5364 9.38Z" fill="black"/>
<path d="M69.4573 23.45C67.0773 23.45 65.1473 22.69 63.6673 21.17C62.2073 19.63 61.4773 17.74 61.4773 15.5C61.4773 13.26 62.2073 11.38 63.6673 9.86C65.1473 8.32 67.0673 7.55 69.4273 7.55C70.7473 7.55 72.0373 7.93 73.2973 8.69C74.5574 9.45 75.1873 10.48 75.1873 11.78C75.1873 12.44 74.9473 13.01 74.4673 13.49C74.0073 13.95 73.4473 14.18 72.7873 14.18C72.1273 14.18 71.5574 13.95 71.0773 13.49C70.6173 13.01 70.3873 12.47 70.3873 11.87C70.3873 11.27 70.5473 10.76 70.8673 10.34C71.1873 9.92 71.6073 9.63 72.1273 9.47C71.5673 9.23 70.9273 9.11 70.2073 9.11C68.8673 9.11 67.8473 9.71 67.1473 10.91C66.4673 12.09 66.1273 13.6 66.1273 15.44C66.1273 17.26 66.4673 18.74 67.1473 19.88C67.8473 21.02 68.8673 21.59 70.2073 21.59C72.0073 21.59 73.5373 20.84 74.7973 19.34L75.6373 19.88C74.9773 20.96 74.1073 21.83 73.0273 22.49C71.9673 23.13 70.7773 23.45 69.4573 23.45Z" fill="black"/>
<path d="M84.203 1.88V9.59C84.903 8.83001 85.653 8.3 86.453 8C87.273 7.7 88.303 7.55 89.543 7.55C90.803 7.55 91.8231 7.95 92.6031 8.75C93.4031 9.53 93.803 10.6 93.803 11.96V19.67C93.803 20.21 93.933 20.64 94.193 20.96C94.453 21.26 94.853 21.41 95.393 21.41C95.933 21.41 96.5531 21.12 97.2531 20.54L97.793 21.26C96.193 22.72 94.593 23.45 92.993 23.45C90.5331 23.45 89.303 21.98 89.303 19.04V11.33C89.303 10.71 89.113 10.23 88.733 9.89C88.3531 9.55 87.8231 9.38 87.1431 9.38C86.4631 9.38 85.803 9.66 85.163 10.22C84.523 10.78 84.203 11.51 84.203 12.41V23H79.703V1.49C78.6031 1.77 77.763 2.26 77.183 2.96L76.373 2.03C76.953 1.43 77.6831 0.950004 78.563 0.590004C79.4631 0.230004 80.343 0.0500031 81.203 0.0500031C82.083 0.0500031 82.803 0.230004 83.363 0.590004C83.923 0.930004 84.203 1.36 84.203 1.88Z" fill="black"/>
<path d="M97.2031 2.03C97.7831 1.43 98.5131 0.950004 99.3931 0.590004C100.293 0.230004 101.173 0.0500031 102.033 0.0500031C102.913 0.0500031 103.633 0.230004 104.193 0.590004C104.753 0.930004 105.033 1.36 105.033 1.88V19.67C105.033 20.21 105.163 20.64 105.423 20.96C105.683 21.26 106.083 21.41 106.623 21.41C107.163 21.41 107.783 21.12 108.483 20.54L109.023 21.26C107.423 22.72 105.823 23.45 104.223 23.45C101.763 23.45 100.533 21.98 100.533 19.04V1.49C99.4331 1.77 98.5931 2.26 98.0131 2.96L97.2031 2.03Z" fill="black"/>
<path d="M108.814 9.53C109.394 8.93 110.124 8.45 111.004 8.09C111.904 7.73 112.784 7.55 113.644 7.55C114.524 7.55 115.244 7.73 115.804 8.09C116.364 8.43001 116.644 8.86 116.644 9.38V18.47C116.644 19.11 116.844 19.6 117.244 19.94C117.644 20.26 118.144 20.42 118.744 20.42C120.024 20.42 121.114 19.87 122.014 18.77C122.934 17.67 123.394 16.26 123.394 14.54C123.394 13.58 123.204 12.57 122.824 11.51C122.464 11.75 122.004 11.87 121.444 11.87C120.884 11.87 120.374 11.65 119.914 11.21C119.474 10.75 119.254 10.2 119.254 9.56C119.254 8.92 119.474 8.38 119.914 7.94C120.374 7.48 120.944 7.25 121.624 7.25C122.304 7.25 122.884 7.51 123.364 8.03C123.864 8.53 124.224 9.2 124.444 10.04C124.804 11.5 124.984 13.12 124.984 14.9C124.984 16.66 124.774 18.43 124.354 20.21C123.954 21.99 123.414 23.52 122.734 24.8C122.074 26.08 121.324 27.19 120.484 28.13C118.764 30.01 117.014 30.95 115.234 30.95C114.754 30.95 114.354 30.84 114.034 30.62C113.734 30.42 113.384 30.04 112.984 29.48L111.424 27.32L112.204 26.51C113.164 26.67 114.004 26.75 114.724 26.75C116.964 26.75 118.794 26.04 120.214 24.62C121.634 23.2 122.754 20.89 123.574 17.69C122.334 21.13 120.054 22.85 116.734 22.85C115.454 22.85 114.364 22.42 113.464 21.56C112.584 20.68 112.144 19.44 112.144 17.84V8.99C111.044 9.27 110.204 9.76 109.624 10.46L108.814 9.53Z" fill="black"/>
</g>
</g>
</svg>
